<?xml version="1.0" encoding="utf-8"?>
<!-- Generator: Adobe Illustrator 26.1.0, SVG Export Plug-In . SVG Version: 6.00 Build 0)  -->
<svg version="1.1" id="Camada_1" xmlns="http://www.w3.org/2000/svg" xmlns:xlink="http://www.w3.org/1999/xlink" x="0px" y="0px"
	 viewBox="0 0 48 39.8" style="enable-background:new 0 0 48 39.8;" xml:space="preserve">
<style type="text/css">
	.st0{fill:#545454;}
	.st1{fill:#B9B9B9;stroke:#383838;stroke-width:2.4665;stroke-miterlimit:10;}
	.st2{fill:none;stroke:#383838;stroke-width:2.4665;stroke-miterlimit:10;}
	.st3{fill:#383838;}
	.st4{fill:#B9B9B9;}
	.st5{fill:none;stroke:#545454;stroke-width:4.252;stroke-linejoin:round;stroke-miterlimit:10;}
	.st6{fill:url(#SVGID_1_);}
	.st7{fill:url(#SVGID_00000041985126694286629740000017472468010880963483_);}
	.st8{fill:none;stroke:#AEAFAE;stroke-width:2.4615;stroke-miterlimit:10;}
</style>
<image style="overflow:visible;" width="73" height="83" xlink:href="30138AFF.jpg"  transform="matrix(3.1143 0 0 3.1143 174.6599 -161.6589)">
</image>
<rect x="284.5" y="-139.2" class="st0" width="58" height="60.1"/>
<g>
	<g>
		<path class="st1" d="M326.1-88.8h-23c-3.1,0-5.6-2.5-5.6-5.6V-126c0-3.1,2.5-5.6,5.6-5.6h13.5c5.9,5.9,9.3,9.3,15.2,15.2v22.1
			C331.7-91.3,329.2-88.8,326.1-88.8z"/>
		<path class="st2" d="M316.5-131.7v9.5c0,3.1,2.5,5.7,5.7,5.7h9.5"/>
	</g>
	<g>
		<path class="st3" d="M293.1-107.8c-1.3,0-2.3-1-2.3-2.3v-10.2c0-1.3,1-2.3,2.3-2.3h18.7c1.3,0,2.3,1,2.3,2.3v10.2
			c0,1.3-1,2.3-2.3,2.3H293.1z"/>
		<g>
			<path class="st0" d="M311.8-122.1c0.9,0,1.7,0.8,1.7,1.7v10.2c0,0.9-0.8,1.7-1.7,1.7h-18.7c-0.9,0-1.7-0.8-1.7-1.7v-10.2
				c0-0.9,0.8-1.7,1.7-1.7H311.8 M311.8-123.3h-18.7c-1.6,0-2.9,1.3-2.9,2.9v10.2c0,1.6,1.3,2.9,2.9,2.9h18.7c1.6,0,2.9-1.3,2.9-2.9
				v-10.2C314.7-122,313.4-123.3,311.8-123.3L311.8-123.3z"/>
		</g>
	</g>
	<g>
		<g>
			<path class="st4" d="M293.1-110.8v-8.7h2.3c0.9,0,1.4,0,1.7,0.1c0.4,0.1,0.8,0.4,1,0.9c0.3,0.4,0.4,1,0.4,1.7
				c0,0.6-0.1,1.2-0.4,1.6c-0.2,0.4-0.5,0.7-0.9,0.9s-1,0.3-1.8,0.3h-0.9v3.3H293.1z M294.5-118v2.5h0.8c0.5,0,0.9,0,1.1-0.1
				c0.2-0.1,0.3-0.2,0.5-0.4s0.2-0.4,0.2-0.7c0-0.3-0.1-0.5-0.2-0.7c-0.1-0.2-0.3-0.3-0.5-0.4c-0.2-0.1-0.6-0.1-1.2-0.1H294.5z"/>
			<path class="st4" d="M299.7-119.5h2.6c0.7,0,1.2,0.1,1.5,0.2c0.3,0.1,0.6,0.4,0.9,0.7c0.3,0.4,0.5,0.8,0.7,1.4
				c0.2,0.6,0.2,1.3,0.2,2.1c0,0.8-0.1,1.4-0.3,2c-0.2,0.6-0.4,1-0.6,1.3c-0.3,0.3-0.6,0.6-0.9,0.7c-0.4,0.2-0.8,0.2-1.4,0.2h-2.7
				V-119.5z M301.1-118v5.7h1.1c0.5,0,0.8,0,1-0.1c0.2-0.1,0.4-0.2,0.5-0.4c0.1-0.2,0.2-0.5,0.3-0.8c0.1-0.4,0.1-0.9,0.1-1.5
				c0-0.6,0-1.2-0.1-1.5c-0.1-0.4-0.2-0.7-0.4-0.9s-0.4-0.4-0.7-0.4c-0.2-0.1-0.6-0.1-1.2-0.1H301.1z"/>
			<path class="st4" d="M306.9-110.8v-8.7h4.9v1.5h-3.4v2.1h3v1.5h-3v3.7H306.9z"/>
		</g>
	</g>
	<g>
		<g>
			<path class="st5" d="M333-93.1h-9.1c-0.6,0-1.1-0.5-1.1-1.1v-12.1c0-0.6,0.5-1.1,1.1-1.1h9.1c0.6,0,1.1,0.5,1.1,1.1v12.1
				C334-93.6,333.5-93.1,333-93.1z"/>
			<polygon class="st5" points="328.4,-83.6 318.4,-94.8 338.4,-94.8 			"/>
		</g>
		<g>
			<linearGradient id="SVGID_1_" gradientUnits="userSpaceOnUse" x1="328.3944" y1="-83.5784" x2="328.3944" y2="-107.3991">
				<stop  offset="0" style="stop-color:#666666"/>
				<stop  offset="1" style="stop-color:#B5B5B5"/>
			</linearGradient>
			<path class="st6" d="M333-93.1h-9.1c-0.6,0-1.1-0.5-1.1-1.1v-12.1c0-0.6,0.5-1.1,1.1-1.1h9.1c0.6,0,1.1,0.5,1.1,1.1v12.1
				C334-93.6,333.5-93.1,333-93.1z"/>
			
				<linearGradient id="SVGID_00000137818339236650238910000003917132435876458906_" gradientUnits="userSpaceOnUse" x1="328.3944" y1="-83.5784" x2="328.3944" y2="-107.3991">
				<stop  offset="0" style="stop-color:#666666"/>
				<stop  offset="1" style="stop-color:#B5B5B5"/>
			</linearGradient>
			<polygon style="fill:url(#SVGID_00000137818339236650238910000003917132435876458906_);" points="328.4,-83.6 318.4,-94.8 
				338.4,-94.8 			"/>
		</g>
	</g>
</g>
<g>
	<line class="st8" x1="24" y1="4" x2="24" y2="35.9"/>
	<g>
		<g>
			<g>
				<line class="st8" x1="10.7" y1="8.8" x2="10.7" y2="31"/>
			</g>
			<g>
				<line class="st8" x1="37.3" y1="8.8" x2="37.3" y2="31"/>
			</g>
		</g>
	</g>
	<line class="st8" x1="4" y1="19.9" x2="44" y2="19.9"/>
</g>
</svg>
