<?xml version="1.0" encoding="utf-8"?>
<!-- Generator: Adobe Illustrator 26.1.0, SVG Export Plug-In . SVG Version: 6.00 Build 0)  -->
<svg version="1.1" id="Camada_1" xmlns="http://www.w3.org/2000/svg" xmlns:xlink="http://www.w3.org/1999/xlink" x="0px" y="0px"
	 viewBox="0 0 50.8 51.7" style="enable-background:new 0 0 50.8 51.7;" xml:space="preserve">
<style type="text/css">
	.st0{fill:#545454;}
	.st1{fill:#B9B9B9;stroke:#383838;stroke-width:2.4665;stroke-miterlimit:10;}
	.st2{fill:none;stroke:#383838;stroke-width:2.4665;stroke-miterlimit:10;}
	.st3{fill:#383838;}
	.st4{fill:#B9B9B9;}
	.st5{fill:none;stroke:#545454;stroke-width:4.252;stroke-linejoin:round;stroke-miterlimit:10;}
	.st6{fill:url(#SVGID_1_);}
	.st7{fill:url(#SVGID_00000070825885769000486170000005048478217160549266_);}
	.st8{fill:url(#SVGID_00000030474865532369223440000004239244213588878721_);}
	.st9{fill:url(#SVGID_00000021821460067843890680000011772120404656550793_);}
</style>
<g>
	<g>
		<path class="st1" d="M35.9,44.1h-23c-3.1,0-5.6-2.5-5.6-5.6V6.9c0-3.1,2.5-5.6,5.6-5.6h13.5c5.9,5.9,9.3,9.3,15.2,15.2v22.1
			C41.6,41.6,39,44.1,35.9,44.1z"/>
		<path class="st2" d="M26.4,1.2v9.5c0,3.1,2.5,5.7,5.7,5.7h9.5"/>
	</g>
	<g>
		<path class="st3" d="M2.9,25.1c-1.3,0-2.3-1-2.3-2.3V12.5c0-1.3,1-2.3,2.3-2.3h18.7c1.3,0,2.3,1,2.3,2.3v10.2c0,1.3-1,2.3-2.3,2.3
			H2.9z"/>
		<g>
			<path class="st0" d="M21.7,10.8c0.9,0,1.7,0.8,1.7,1.7v10.2c0,0.9-0.8,1.7-1.7,1.7H2.9c-0.9,0-1.7-0.8-1.7-1.7V12.5
				c0-0.9,0.8-1.7,1.7-1.7H21.7 M21.7,9.6H2.9C1.3,9.6,0,10.9,0,12.5v10.2c0,1.6,1.3,2.9,2.9,2.9h18.7c1.6,0,2.9-1.3,2.9-2.9V12.5
				C24.6,10.9,23.3,9.6,21.7,9.6L21.7,9.6z"/>
		</g>
	</g>
	<g>
		<g>
			<path class="st4" d="M2.9,22.1v-8.7h2.3c0.9,0,1.4,0,1.7,0.1c0.4,0.1,0.8,0.4,1,0.9c0.3,0.4,0.4,1,0.4,1.7c0,0.6-0.1,1.2-0.4,1.6
				c-0.2,0.4-0.5,0.7-0.9,0.9s-1,0.3-1.8,0.3H4.4v3.3H2.9z M4.4,14.9v2.5h0.8c0.5,0,0.9,0,1.1-0.1c0.2-0.1,0.3-0.2,0.5-0.4
				s0.2-0.4,0.2-0.7c0-0.3-0.1-0.5-0.2-0.7c-0.1-0.2-0.3-0.3-0.5-0.4c-0.2-0.1-0.6-0.1-1.2-0.1H4.4z"/>
			<path class="st4" d="M9.6,13.4h2.6c0.7,0,1.2,0.1,1.5,0.2c0.3,0.1,0.6,0.4,0.9,0.7c0.3,0.4,0.5,0.8,0.7,1.4
				c0.2,0.6,0.2,1.3,0.2,2.1c0,0.8-0.1,1.4-0.3,2c-0.2,0.6-0.4,1-0.6,1.3c-0.3,0.3-0.6,0.6-0.9,0.7c-0.4,0.2-0.8,0.2-1.4,0.2H9.6
				V13.4z M11,14.9v5.7h1.1c0.5,0,0.8,0,1-0.1c0.2-0.1,0.4-0.2,0.5-0.4c0.1-0.2,0.2-0.5,0.3-0.8c0.1-0.4,0.1-0.9,0.1-1.5
				c0-0.6,0-1.2-0.1-1.5c-0.1-0.4-0.2-0.7-0.4-0.9S13.1,15,12.8,15c-0.2-0.1-0.6-0.1-1.2-0.1H11z"/>
			<path class="st4" d="M16.8,22.1v-8.7h4.9v1.5h-3.4v2.1h3v1.5h-3v3.7H16.8z"/>
		</g>
	</g>
	<g>
		<g>
			<path class="st5" d="M42.8,39.8h-9.1c-0.6,0-1.1-0.5-1.1-1.1V26.6c0-0.6,0.5-1.1,1.1-1.1h9.1c0.6,0,1.1,0.5,1.1,1.1v12.1
				C43.9,39.3,43.4,39.8,42.8,39.8z"/>
			<polygon class="st5" points="38.3,49.3 28.2,38.1 48.3,38.1 			"/>
		</g>
		<g>
			
				<linearGradient id="SVGID_1_" gradientUnits="userSpaceOnUse" x1="329.7795" y1="-77.6417" x2="329.7795" y2="-101.4625" gradientTransform="matrix(1 0 0 1 -291.5243 126.9641)">
				<stop  offset="0" style="stop-color:#666666"/>
				<stop  offset="1" style="stop-color:#B5B5B5"/>
			</linearGradient>
			<path class="st6" d="M42.8,39.8h-9.1c-0.6,0-1.1-0.5-1.1-1.1V26.6c0-0.6,0.5-1.1,1.1-1.1h9.1c0.6,0,1.1,0.5,1.1,1.1v12.1
				C43.9,39.3,43.4,39.8,42.8,39.8z"/>
			
				<linearGradient id="SVGID_00000133520225837120547960000016044828275988361119_" gradientUnits="userSpaceOnUse" x1="329.7795" y1="-77.6417" x2="329.7795" y2="-101.4625" gradientTransform="matrix(1 0 0 1 -291.5243 126.9641)">
				<stop  offset="0" style="stop-color:#666666"/>
				<stop  offset="1" style="stop-color:#B5B5B5"/>
			</linearGradient>
			<polygon style="fill:url(#SVGID_00000133520225837120547960000016044828275988361119_);" points="38.3,49.3 28.2,38.1 48.3,38.1 
							"/>
		</g>
	</g>
</g>
</svg>
